<mxfile host="app.diagrams.net" agent="Mozilla/5.0 (Windows NT 10.0; Win64; x64) AppleWebKit/537.36 (KHTML, like Gecko) Chrome/128.0.0.0 Whale/3.28.266.11 Safari/537.36" version="24.7.16">
  <diagram name="페이지-1" id="R4Q2qPJspybIe9KQv1fG">
    <mxGraphModel dx="1628" dy="757" grid="1" gridSize="10" guides="1" tooltips="1" connect="1" arrows="1" fold="1" page="1" pageScale="1" pageWidth="827" pageHeight="1169" math="0" shadow="0">
      <root>
        <mxCell id="0" />
        <mxCell id="1" parent="0" />
        <mxCell id="XRgdcej7iSXmF4w9w-69-1" value="게임시작" style="rounded=0;whiteSpace=wrap;html=1;" vertex="1" parent="1">
          <mxGeometry x="354" y="50" width="120" height="60" as="geometry" />
        </mxCell>
        <mxCell id="XRgdcej7iSXmF4w9w-69-2" value="카드 분배" style="rounded=0;whiteSpace=wrap;html=1;" vertex="1" parent="1">
          <mxGeometry x="354" y="180" width="120" height="60" as="geometry" />
        </mxCell>
        <mxCell id="XRgdcej7iSXmF4w9w-69-3" value="각 턴 진행" style="rounded=0;whiteSpace=wrap;html=1;" vertex="1" parent="1">
          <mxGeometry x="354" y="300" width="120" height="60" as="geometry" />
        </mxCell>
        <mxCell id="XRgdcej7iSXmF4w9w-69-4" value="점수 결산" style="rounded=0;whiteSpace=wrap;html=1;" vertex="1" parent="1">
          <mxGeometry x="354" y="420" width="120" height="60" as="geometry" />
        </mxCell>
        <mxCell id="XRgdcej7iSXmF4w9w-69-5" value="" style="endArrow=classic;html=1;rounded=0;exitX=1;exitY=0.5;exitDx=0;exitDy=0;entryX=1;entryY=0.5;entryDx=0;entryDy=0;" edge="1" parent="1" source="XRgdcej7iSXmF4w9w-69-4" target="XRgdcej7iSXmF4w9w-69-2">
          <mxGeometry width="50" height="50" relative="1" as="geometry">
            <mxPoint x="620" y="440" as="sourcePoint" />
            <mxPoint x="670" y="390" as="targetPoint" />
            <Array as="points">
              <mxPoint x="700" y="450" />
              <mxPoint x="700" y="330" />
              <mxPoint x="700" y="210" />
            </Array>
          </mxGeometry>
        </mxCell>
        <mxCell id="XRgdcej7iSXmF4w9w-69-6" value="카드&lt;div&gt;뒷면이냐 앞면이냐?&lt;/div&gt;&lt;div&gt;&lt;br&gt;&lt;/div&gt;" style="rounded=0;whiteSpace=wrap;html=1;" vertex="1" parent="1">
          <mxGeometry x="80" y="290" width="120" height="240" as="geometry" />
        </mxCell>
        <mxCell id="XRgdcej7iSXmF4w9w-69-7" value="11월 3일" style="rounded=0;whiteSpace=wrap;html=1;" vertex="1" parent="1">
          <mxGeometry x="70" y="140" width="120" height="60" as="geometry" />
        </mxCell>
      </root>
    </mxGraphModel>
  </diagram>
</mxfile>
